<?xml version="1.0" encoding="utf-8"?>
<!-- Generator: Adobe Illustrator 19.2.1, SVG Export Plug-In . SVG Version: 6.00 Build 0)  -->
<svg version="1.1" id="Livello_1" xmlns="http://www.w3.org/2000/svg" xmlns:xlink="http://www.w3.org/1999/xlink" x="0px" y="0px"
	 viewBox="0 0 146 51.5705605" style="enable-background:new 0 0 146 51.5705605;" xml:space="preserve">
<g id="g3414">
	<g id="g3420" transform="translate(451.5722,313.6344)">
		<path id="path3422"  style="fill:#FFFFFF;" d="M-350.0303345-298.9646912v2.7911377
			c0,1.9342651,0,1.9342651,1.9323425,2.2141418c1.5482788,0.2243042,3.0192871-0.4249268,3.6071472-1.7527771
			c0.9578552-2.1681213,1.0000305-4.4039917,0.0166321-6.5695496c-0.9751282-2.1457825-3.3387756-2.4633484-5.1343689-1.3936768
			c-0.2172852,0.1297302-0.3961792,0.5009766-0.4051514,0.7668152
			C-350.0539856-301.5948181-350.0303345-300.2797546-350.0303345-298.9646912 M-348.2718201-285.5603943h-0.513092h-6.0564575
			c-0.244751-0.8146973-0.2051086-0.898407,0.499054-1.116333c0.9891663-0.3067017,1.009613-0.3258667,1.009613-1.3457336
			c0.0032043-4.9420166,0.0032043-9.8834229,0.0032043-14.8254395c0-1.4179382-0.0345154-1.4358521-1.4083557-1.7975159
			c-0.1968079-0.0511169-0.4140625-0.2530518-0.4971313-0.440918c-0.0421753-0.0990295,0.1514282-0.4204407,0.2920227-0.4645386
			c1.545105-0.4894714,3.1189575-0.8338928,4.8269958-0.7661743v1.9598389
			c0.3789368-0.3642578,0.6524353-0.6671448,0.9661865-0.9240112c2.7285156-2.2250061,6.7650757-1.2863159,8.1427612,2.0224304
			c1.2780151,3.0646667,0.8722534,6.0494385-1.2198486,8.6654968c-1.1891785,1.4850464-2.8799744,2.1936951-4.7586365,2.3547058
			c-0.9808655,0.0843506-1.975769,0.0153503-2.9476929,0.0153503c0,1.6511841-0.0089417,3.2825317,0.0172424,4.9158325
			c0.0012817,0.1424866,0.2185364,0.3201294,0.3750916,0.4134216c0.1687012,0.0984192,0.3821106,0.1156616,0.5763855,0.1699829
			C-348.1810608-286.5061035-348.1810608-286.5061035-348.2718201-285.5603943"/>
	</g>
	<g id="g3424" transform="translate(513.0175,322.112)">
		<path id="path3426"  style="fill:#FFFFFF;" d="M-372.2120361-312.8594971
			c-0.9495544-0.0881653-1.8825073-0.2344971-2.8173523-0.2504883c-1.4262695-0.0230103-2.4403687,0.6728821-2.9138489,2.0237122
			c-0.736145,2.1055298-0.7246399,4.223175,0.2447205,6.2532654c1.026886,2.1457825,3.2512512,2.4243774,5.044281,1.4179382
			c0.1936035-0.1092529,0.4223633-0.3808289,0.4223633-0.5802002
			C-372.2043762-306.8924866-372.2120361-309.7884521-372.2120361-312.8594971 M-372.22995-314.9208984
			c0-1.4754639,0.0115051-2.9713745-0.0050964-4.465332c-0.0057678-0.4786377-0.2856445-0.7815247-0.7610474-0.8920593
			c-0.370636-0.0869141-0.7387085-0.184021-1.0920715-0.2722168c-0.2051086-0.5348511-0.0140381-0.7917175,0.5041809-0.932312
			c1.5022888-0.4057617,3.0173645-0.6990662,4.6589661-0.6102295v0.7361145c0,5.5695496,0.0031738,11.1384277,0.0057373,16.7079773
			c0,0.2427979,0,0.4849854,0.0089417,0.7290955c0.0421753,1.0032349,0.1706238,1.15979,1.1514893,1.3987732
			c0.1367493,0.0325928,0.2933044,0.0421753,0.4057617,0.1169128c0.1393127,0.0939331,0.3405762,0.2498779,0.3354797,0.3661499
			c-0.0115051,0.1680603-0.1533508,0.4223938-0.2996826,0.4728699c-1.5163574,0.527832-3.0729675,0.8287964-4.7612,0.7444458
			v-1.9649353c-0.1284485,0.0613403-0.1917114,0.0709229-0.2223816,0.1080017
			c-2.3949585,2.9694214-6.6801147,2.6467285-8.6022339-0.649231c-1.6620178-2.8544312-1.1661682-7.2603455,1.0895081-9.5460205
			c1.2626648-1.2799377,2.8397217-1.9055176,4.6014404-2.0346069
			C-374.2447205-314.9797058-373.2734375-314.9208984-372.22995-314.9208984"/>
	</g>
	<g id="g3428" transform="translate(484.2691,303.5323)">
		<path id="path3430"  style="fill:#FFFFFF;" d="M-361.8338928-282.4073181v-0.8524475
			c0.1476135-0.0574951,0.3080139-0.1309814,0.4735107-0.1833801c1.0997009-0.339325,1.1080017-0.3367615,1.1118469-1.4530945
			c0.005127-1.8230591,0.0223694-3.6486816-0.012146-5.4711304c-0.0089417-0.6415405-0.0939331-1.2952576-0.2415466-1.9195557
			c-0.2709351-1.1297607-0.9476318-1.6773682-2.1125183-1.7284851c-0.499054-0.0217285-1.0185852,0.0306702-1.5029297,0.1456909
			c-1.4428711,0.3367615-1.639679,0.612793-1.6371155,2.0869751c0.0057373,2.3310852,0.0089417,4.661499,0.0229797,6.9913025
			c0.0057678,1.0083313,0.0287781,1.0262451,0.9604187,1.3195496c0.1910706,0.0606995,0.3847046,0.116272,0.6013184,0.1814575
			v0.8811951h-6.5056763v-0.8204956c0.0281067-0.0236206,0.0543213-0.0626221,0.0856323-0.0728455
			c1.6390381-0.5162964,1.5310364-0.15271,1.5476685-2.0441589c0.043457-4.8832397,0.014679-9.7684021,0.014679-14.6542053
			c0-0.1610107-0.002533-0.3226929-0.014679-0.4849854c-0.0536804-0.9137878-0.1597595-1.0434875-1.0549927-1.278656
			c-0.2709351-0.0722046-0.5412292-0.1424866-0.7981262-0.2095947c-0.2051086-0.5686951,0.0115051-0.8038635,0.5559387-0.9482727
			c1.4716187-0.3910522,2.9508972-0.6600952,4.5337219-0.6019287v9.5313416
			c0.7980957-1.2728882,1.8339233-2.0390625,3.1879578-2.2774048c1.7642822-0.3124695,3.4640198-0.2434692,4.6781311,1.3387146
			c0.7380371,0.9674377,0.9406128,2.1393738,0.9642639,3.3227844c0.0364075,1.9649353,0.0198059,3.9311523,0.0223389,5.8973389
			c0.0032043,0.101593,0,0.2038574,0.0032043,0.3041687c0.0479126,2.000061-0.0108643,1.5827942,1.6505432,2.1412964v0.8588257
			H-361.8338928z"/>
	</g>
	<g id="g3432" transform="translate(434.5405,317.9585)">
		<path id="path3434"  style="fill:#FFFFFF;" d="M-343.881897-306.0518799
			c-0.0651855-2.2806091-1.2684326-3.4927979-3.0454712-3.2608337c-1.3316956,0.1763611-2.4378052,1.9841003-2.1700439,3.5803223
			C-347.3727722-305.8384705-345.6442566-305.9439087-343.881897-306.0518799 M-340.5437622-304.453125h-8.5645142
			c-0.1942749,2.7489929,1.4907837,5.4558105,4.6020813,5.5899963c1.2824707,0.0543213,2.4805908-0.2722168,3.6461182-0.7553101
			c0.1629639-0.0670776,0.3252563-0.1437683,0.6786194-0.3016052c-0.1853027,0.5016174-0.227478,0.9169617-0.4536743,1.1706543
			c-2.5342712,2.8652649-7.509552,2.9579163-9.9307251,0.2862549c-0.9520874-1.0517883-1.5016479-2.2946472-1.7163391-3.6767883
			c-0.3099365-2.02948-0.1169434-3.9803467,0.9981079-5.7803955c1.796875-2.9029846,5.2576904-3.4346313,7.7216797-2.4569702
			c1.7611084,0.6990662,2.5943604,2.1649475,2.8703918,3.9752197
			C-340.600647-305.7886353-340.5942383-305.1630554-340.5437622-304.453125"/>
	</g>
	<g id="g3436" transform="translate(407.2634,334.1565)">
		<path id="path3438"  style="fill:#FFFFFF;" d="M-334.0348816-332.6004333
			c-0.1654968-0.5718994,0.0255432-0.80896,0.5508118-0.9444275c1.4876099-0.3865967,2.9822083-0.6773376,4.6020813-0.5917358
			v0.7463684c0.0089417,6.0168152,0.0115051,12.03302,0.0255737,18.0479431c0,0.9297485,0.0568542,1.0492249,0.9635925,1.2370911
			c0.6409302,0.1322937,0.7840576,0.4524231,0.6243286,1.0664978h-6.5350647v-0.8128052
			c0.0344849-0.0281067,0.0574951-0.0658264,0.0913696-0.0773315c1.6505432-0.5156555,1.5252991-0.1680603,1.5393372-1.9802551
			c0.0460205-4.9215698,0.0172729-9.843811,0.0172729-14.7653809c0-0.1425171-0.0025635-0.2843628-0.0115051-0.4255676
			c-0.0536804-0.9220886-0.162323-1.0556335-1.0434875-1.2825012
			C-333.4815063-332.4534607-333.7524414-332.5263062-334.0348816-332.6004333"/>
	</g>
	<g id="g3440" transform="translate(396.756,325.1435)">
		<path id="path3442"  style="fill:#FFFFFF;" d="M-330.2417297-317.828125l-0.8153687-0.1412048
			c-1.174469,0-2.0160522-0.058136-2.9822083,0.0140686c-1.7623596,0.1303406-3.3387756,0.7546387-4.6020813,2.0339355
			c-2.2556763,2.2876282-2.7515564,6.6928711-1.0863037,9.5466614c1.9195557,3.2959595,6.2839355,3.5368652,8.6763611,0.5674438
			c0.031311-0.0377197,0.1968079-1.4473572,0.1968079-1.4473572c-0.0683899,0.0709534-0.0517578,0.4217529-0.6275024,0.791748
			c-1.7304077,1.1105652-4.017395,0.7278137-5.0436401-1.4186096c-0.9687195-2.0294495-0.9808655-4.145813-0.2453613-6.252594
			c0.4734802-1.3502197,1.4537048-2.1930542,2.9138184-2.237793c0,0,1.9451294-0.1642151,2.4633484,0.8907776
			c0.4249573,0.8562622,0.3425293,3.9700928,0.3425293,3.9700928"/>
	</g>
	<g id="g3444" transform="translate(395.4799,325.3643)">
		<path id="path3446"  style="fill:#FFFFFF;" d="M-329.7810364-318.1900024
			c1.7304077,0,2.7796326,0,2.8818665,1.5176392c0.1284485,1.8352051,0.092041,5.7478027,0.1348572,7.5894165
			c0.0108643,0.5642395,0.0370483,1.131012,0.0939331,1.6927185c0.1028748,1.0294189,0.7156677,1.6287842,1.6792908,1.9137878
			c0.1712341,0.0523987,0.3424988,0.113739,0.5706177,0.1923523c-0.5540161,1.0530701-1.5514832,1.2850342-2.5464172,1.3565979
			c-1.4339294,0.1028748-2.3348999-0.687561-2.8084106-2.1004028v-10.1728821L-329.7810364-318.1900024z"/>
	</g>
	<g id="g3448" transform="translate(359.7816,265.7915)">
		<path id="path3450"  style="fill:#F89520;" d="M-316.8939819-220.5501556
			c-0.491394-0.0460052-0.9751282-0.1201324-1.4588318-0.1284485c-0.7380676-0.0121307-1.2639465,0.3482666-1.5093384,1.0466919
			c-0.3814697,1.0907745-0.3750916,2.1866608,0.1271667,3.23909c0.5310059,1.1112213,1.683136,1.254364,2.6122437,0.734848
			c0.1009521-0.0562286,0.2172546-0.1974487,0.2191772-0.3016052
			C-316.8895264-217.4599457-316.8939819-218.9590454-316.8939819-220.5501556 M-316.9022827-221.6172943
			c0-0.7635956,0.0057373-1.5387115-0.0032043-2.3125458c-0.0025635-0.2479248-0.1476135-0.4038391-0.3948975-0.4613495
			c-0.1923523-0.0453644-0.3815002-0.0964966-0.5661621-0.1425018c-0.1041565-0.2766876-0.0063782-0.4095917,0.2613525-0.4817963
			c0.7795715-0.2115173,1.56427-0.3610382,2.4135132-0.3163147v0.3821259c0,2.881897,0.0019226,5.7682648,0.0031738,8.6520691
			c0,0.1252441,0,0.25177,0.005127,0.3782806c0.0204468,0.5182343,0.0888062,0.5993958,0.5968323,0.723999
			c0.0709229,0.015976,0.1507874,0.0223541,0.2076721,0.0613403c0.0734863,0.0460052,0.1782837,0.1284332,0.1757202,0.1897888
			c-0.0076599,0.0843353-0.0811462,0.2185364-0.1559143,0.2447357c-0.7840576,0.2741241-1.5911255,0.4268494-2.4646301,0.3853149
			v-1.0185699c-0.0670776,0.031311-0.1003113,0.0364227-0.1156616,0.0562286
			c-1.2402954,1.5380859-3.4601746,1.3687439-4.4551086-0.3348389c-0.8594666-1.4799194-0.6044922-3.7624359,0.5635986-4.9439392
			c0.6536865-0.6652069,1.4709778-0.9878998,2.3834839-1.0556335
			C-317.947052-221.6479645-317.4429016-221.6172943-316.9022827-221.6172943"/>
	</g>
	<g id="g3452" transform="translate(350.1351,291.3815)">
		<path id="path3454"  style="fill:#F89520;" d="M-313.4116211-262.4921875l-26.8226929-23.5248108
			c-2.4773865-2.1687622-1.6863098-4.2461548-1.6863098-4.2461548s-4.6960144,4.7746277-6.9574585,7.0366821
			c-1.3623352,1.3616943-1.9042053,2.9617615-0.14505,4.5094299l27.2846985,24.0149231
			c1.966217,1.9674835,1.2767334,3.7720184,1.2767334,3.7720184s6.6564636-6.6258087,7.3082581-7.2762909
			C-311.8780212-259.4824829-311.9642639-261.2314453-313.4116211-262.4921875"/>
	</g>
	<g id="g3456" transform="translate(335.9978,303.7728)">
		<path id="path3458"  style="fill:#F89520;" d="M-308.3080444-282.8015137
			c0,0,4.0985413-4.0992126,5.3343506-5.3337402c1.4671631-1.469696,2.4147949-2.646759,2.4147949-4.3209229v-7.7242432
			c0-1.5342407-0.8025818-2.3789978-2.5675049-2.3789978h-2.1125488c-1.0166321,0-1.9917603,0.4031982-2.7099915,1.1233521
			l-8.110199,8.1210632h4.6832275c0,0,1.9598389-0.1821289,1.9598389,2.0888977
			c0,2.6933899-0.0383606,7.4462585-0.0383606,7.4462585"/>
	</g>
	<g id="g3460" transform="translate(308.3445,304.6428)">
		<path id="path3462"  style="fill:#F89520;" d="M-298.3252258-284.2274475
			c0,0-4.0985718,4.0991821-5.3343811,5.3337402c-1.467804,1.4677734-2.4147949,2.6454773-2.4147949,4.3209229v7.7236023
			c0,1.5348816,0.8013,2.3796387,2.5687866,2.3796387h2.1099854c1.0172729,0,1.9924011-0.4051208,2.7125549-1.1252747
			l8.1089172-8.1204224h-4.6813354c0,0-1.9604492,0.1827393-1.9604492-2.0895386
			c0-2.6914673,0.0370789-7.4443665,0.0370789-7.4443665"/>
	</g>
	<g id="g3464" transform="translate(477.5411,285.2618)">
		<path id="path3466"  style="fill:#FFFFFF;" d="M-359.4050903-252.4620056v-0.0198059
			c0-0.4415436-0.1284485-0.8025818-0.3853149-1.0843811c-0.2594299-0.2817993-0.5751038-0.4223785-0.9476318-0.4223785
			c-0.3712769,0-0.6850281,0.1405792-0.9406128,0.4223785c-0.2530518,0.2817993-0.3821411,0.6428375-0.3821411,1.0843811v0.0198059
			c0,0.4421844,0.1290894,0.8019409,0.3821411,1.0837402c0.2555847,0.2811737,0.5693359,0.4217529,0.9406128,0.4217529
			c0.3725281,0,0.6882019-0.1373901,0.9476318-0.4160004C-359.5335388-251.6517487-359.4050903-252.0153351-359.4050903-252.4620056
			 M-357.856781-252.4620056c0,0.8684082-0.2511292,1.5661926-0.7546692,2.095932
			c-0.4677429,0.4824371-1.0441284,0.7233429-1.7297668,0.7233429c-0.6779785,0-1.2454224-0.2722168-1.6990967-0.8140869v0.7112122
			h-1.5457458v-7.4283752h1.5457458v2.7591858c0.4351501-0.5904388,1.0006714-0.8856506,1.6990967-0.8856506
			c0.6786194,0,1.2524414,0.2409058,1.7201843,0.7220764c0.5092773,0.5290833,0.7642517,1.2281494,0.7642517,2.0965576V-252.4620056
			z"/>
	</g>
	<g id="g3468" transform="translate(488.6947,289.5439)">
		<path id="path3470"  style="fill:#FFFFFF;" d="M-363.4315186-259.4803772l-2.0971985,5.5848694
			c-0.2108765,0.5642395-0.4460449,0.9578552-0.711853,1.1853485c-0.2632751,0.2281189-0.6236572,0.341217-1.0780029,0.341217
			c-0.4888306,0-0.946991-0.1246033-1.3719482-0.3763733l0.5188904-1.1195221
			c0.2357788,0.1437683,0.4555969,0.2134247,0.6600952,0.2134247c0.2453613,0,0.423645-0.1188507,0.5393066-0.3552856
			l-2.1368103-5.4736786h1.6377563l1.2434998,3.7138672l1.1878967-3.7138672H-363.4315186z"/>
	</g>
	<g id="g3472" transform="translate(521.1442,282.2076)">
		<path id="path3474"  style="fill:#FFFFFF;" d="M-375.1457825-247.4561615
			c0-0.5476379-0.4428406-0.986618-0.9891663-0.986618c-0.5431519,0-0.9859924,0.4389801-0.9859924,0.986618
			c0,0.5469818,0.4428406,0.9891663,0.9859924,0.9891663C-375.588623-246.4669952-375.1457825-246.9091797-375.1457825-247.4561615
			 M-383.4023132-247.9641724c-0.6977844,0-1.2888794-0.5719147-1.2888794-1.3534088
			c0-0.7872467,0.591095-1.3591461,1.2888794-1.3591461c0.6971436,0,1.2875977,0.5718994,1.2875977,1.3591461
			C-382.1147156-248.536087-382.7051697-247.9641724-383.4023132-247.9641724 M-383.4023132-252.1771088
			c-1.9572449,0-2.8959656,1.5399933-2.8959656,2.8595276c0,1.3137817,0.9387207,2.8544159,2.8959656,2.8544159
			c1.9566345,0,2.8959656-1.5406342,2.8959656-2.8544159C-380.5063477-250.6371155-381.4456787-252.1771088-383.4023132-252.1771088
			 M-389.9526978-251.5662231h0.0178833h0.0102234l0.7373962,2.4486542h-1.5029297L-389.9526978-251.5662231z
			 M-388.7034607-247.6651154l0.3482666,1.0370941h1.9853516l-2.8486633-7.1663971h-1.4428406l-2.8755188,7.1663971h1.966217
			l0.3776245-1.0370941C-391.1930237-247.6651154-388.7034607-247.6651154-388.7034607-247.6651154z M-379.6647949-253.7944183
			h1.6090088v7.1663971h-1.6090088V-253.7944183z"/>
	</g>
</g>
</svg>
