<?xml version="1.0" encoding="UTF-8" standalone="no"?>
<!-- Created with Inkscape (http://www.inkscape.org/) -->

<svg
   xmlns:dc="http://purl.org/dc/elements/1.1/"
   xmlns:cc="http://creativecommons.org/ns#"
   xmlns:rdf="http://www.w3.org/1999/02/22-rdf-syntax-ns#"
   xmlns:svg="http://www.w3.org/2000/svg"
   xmlns="http://www.w3.org/2000/svg"
   xmlns:sodipodi="http://sodipodi.sourceforge.net/DTD/sodipodi-0.dtd"
   xmlns:inkscape="http://www.inkscape.org/namespaces/inkscape"
   id="svg2"
   version="1.1"
   inkscape:version="0.91 r13725"
   xml:space="preserve"
   width="1052.3625"
   height="744.09998"
   viewBox="0 0 1052.3625 744.09998"
   sodipodi:docname="LOGO.svg"><metadata
     id="metadata8"><rdf:RDF><cc:Work
         rdf:about=""><dc:format>image/svg+xml</dc:format><dc:type
           rdf:resource="http://purl.org/dc/dcmitype/StillImage" /><dc:title /></cc:Work></rdf:RDF></metadata><defs
     id="defs6"><clipPath
       clipPathUnits="userSpaceOnUse"
       id="clipPath16"><path
         d="m 0,595.28 841.89,0 L 841.89,0 0,0 0,595.28 Z"
         id="path18"
         inkscape:connector-curvature="0" /></clipPath></defs><sodipodi:namedview
     pagecolor="#ffffff"
     bordercolor="#666666"
     borderopacity="1"
     objecttolerance="10"
     gridtolerance="10"
     guidetolerance="10"
     inkscape:pageopacity="0"
     inkscape:pageshadow="2"
     inkscape:window-width="1280"
     inkscape:window-height="756"
     id="namedview4"
     showgrid="false"
     inkscape:zoom="1.4142136"
     inkscape:cx="469.29086"
     inkscape:cy="347.32835"
     inkscape:window-x="5"
     inkscape:window-y="26"
     inkscape:window-maximized="0"
     inkscape:current-layer="g10" /><g
     id="g10"
     inkscape:groupmode="layer"
     inkscape:label="LOGO_violet"
     transform="matrix(1.25,0,0,-1.25,0,744.1)"><g
       clip-path="url(#clipPath16)"
       id="g14"><g
         transform="translate(459.0988,315.0352)"
         id="g20"><path
           inkscape:connector-curvature="0"
           id="path22"
           style="fill:#201e4a;fill-opacity:1;fill-rule:nonzero;stroke:none"
           d="m 0,0 0,-4.368 c 0,-3.027 0,-3.027 3.024,-3.465 2.423,-0.351 4.725,0.665 5.645,2.743 1.499,3.393 1.565,6.892 0.026,10.281 C 7.169,8.549 3.47,9.046 0.66,7.372 0.32,7.169 0.04,6.588 0.026,6.172 -0.037,4.116 0,2.058 0,0 m 2.752,-20.977 -0.803,0 -9.478,0 c -0.383,1.275 -0.321,1.406 0.781,1.747 1.548,0.48 1.58,0.51 1.58,2.106 0.005,7.734 0.005,15.467 0.005,23.201 0,2.219 -0.054,2.247 -2.204,2.813 -0.308,0.08 -0.648,0.396 -0.778,0.69 -0.066,0.155 0.238,0.658 0.457,0.727 2.418,0.766 4.881,1.305 7.554,1.199 l 0,-3.067 c 0.593,0.57 1.021,1.044 1.512,1.446 4.27,3.482 10.588,2.013 12.743,-3.165 2,-4.796 1.365,-9.467 -1.909,-13.561 -1.861,-2.324 -4.507,-3.433 -7.447,-3.685 -1.535,-0.132 -3.092,-0.024 -4.613,-0.024 0,-2.584 -0.014,-5.137 0.027,-7.693 0.002,-0.223 0.342,-0.501 0.587,-0.647 0.264,-0.154 0.598,-0.181 0.902,-0.266 1.226,-0.341 1.226,-0.341 1.084,-1.821" /></g><g
         transform="translate(520.5442,323.5128)"
         id="g24"><path
           inkscape:connector-curvature="0"
           id="path26"
           style="fill:#201e4a;fill-opacity:1;fill-rule:nonzero;stroke:none"
           d="m 0,0 c -1.486,0.138 -2.946,0.367 -4.409,0.392 -2.232,0.036 -3.819,-1.053 -4.56,-3.167 -1.152,-3.295 -1.134,-6.609 0.383,-9.786 1.607,-3.358 5.088,-3.794 7.894,-2.219 0.303,0.171 0.661,0.596 0.661,0.908 C 0.012,-9.338 0,-4.806 0,0 m -0.028,3.226 c 0,2.309 0.018,4.65 -0.008,6.988 -0.009,0.749 -0.447,1.223 -1.191,1.396 -0.58,0.136 -1.156,0.288 -1.709,0.426 -0.321,0.837 -0.022,1.239 0.789,1.459 2.351,0.635 4.722,1.094 7.291,0.955 l 0,-1.152 c 0,-8.716 0.005,-17.431 0.009,-26.147 0,-0.38 0,-0.759 0.014,-1.141 0.066,-1.57 0.267,-1.815 1.802,-2.189 0.214,-0.051 0.459,-0.066 0.634,-0.183 0.219,-0.147 0.534,-0.391 0.526,-0.573 -0.018,-0.263 -0.241,-0.661 -0.469,-0.74 -2.373,-0.826 -4.809,-1.297 -7.451,-1.165 l 0,3.075 c -0.201,-0.096 -0.3,-0.111 -0.348,-0.169 -3.748,-4.647 -10.454,-4.142 -13.462,1.016 -2.601,4.467 -1.825,11.362 1.705,14.939 1.976,2.003 4.444,2.982 7.201,3.184 1.514,0.113 3.034,0.021 4.667,0.021" /></g><g
         transform="translate(491.7957,304.9331)"
         id="g28"><path
           inkscape:connector-curvature="0"
           id="path30"
           style="fill:#201e4a;fill-opacity:1;fill-rule:nonzero;stroke:none"
           d="m 0,0 0,1.334 c 0.231,0.09 0.482,0.205 0.741,0.287 1.721,0.531 1.734,0.527 1.74,2.274 0.008,2.853 0.035,5.71 -0.019,8.562 -0.014,1.004 -0.147,2.027 -0.378,3.004 -0.424,1.768 -1.483,2.625 -3.307,2.705 -0.78,0.034 -1.593,-0.048 -2.351,-0.228 -2.258,-0.527 -2.567,-0.959 -2.562,-3.266 0.009,-3.648 0.014,-7.295 0.036,-10.941 0.009,-1.578 0.045,-1.606 1.503,-2.065 0.299,-0.095 0.602,-0.182 0.941,-0.284 l 0,-1.379 -10.181,0 0,1.284 c 0.044,0.037 0.085,0.098 0.134,0.114 2.565,0.808 2.396,0.239 2.422,3.199 0.068,7.642 0.023,15.287 0.023,22.933 0,0.252 -0.004,0.505 -0.023,0.759 -0.084,1.43 -0.25,1.633 -1.651,2.001 -0.424,0.113 -0.847,0.223 -1.249,0.328 -0.321,0.89 0.018,1.258 0.87,1.484 2.303,0.612 4.618,1.033 7.095,0.942 l 0,-14.916 c 1.249,1.992 2.87,3.191 4.989,3.564 C 1.534,22.184 4.194,22.076 6.094,19.6 7.249,18.086 7.566,16.252 7.603,14.4 7.66,11.325 7.634,8.248 7.638,5.171 7.643,5.012 7.638,4.852 7.643,4.695 7.718,1.565 7.626,2.218 10.226,1.344 L 10.226,0 0,0 Z" /></g><g
         transform="translate(442.0671,319.3593)"
         id="g32"><path
           inkscape:connector-curvature="0"
           id="path34"
           style="fill:#201e4a;fill-opacity:1;fill-rule:nonzero;stroke:none"
           d="M 0,0 C -0.102,3.569 -1.985,5.466 -4.766,5.103 -6.85,4.827 -8.581,1.998 -8.162,-0.5 -5.463,-0.334 -2.758,-0.169 0,0 m 5.224,-2.502 -13.403,0 c -0.304,-4.302 2.333,-8.538 7.202,-8.748 2.007,-0.085 3.882,0.426 5.706,1.182 0.255,0.105 0.509,0.225 1.062,0.472 -0.29,-0.785 -0.356,-1.435 -0.71,-1.832 -3.966,-4.484 -11.752,-4.629 -15.541,-0.448 -1.49,1.646 -2.35,3.591 -2.686,5.754 -0.485,3.176 -0.183,6.229 1.562,9.046 2.812,4.543 8.228,5.375 12.084,3.845 2.756,-1.094 4.06,-3.388 4.492,-6.221 0.143,-0.96 0.153,-1.939 0.232,-3.05" /></g><g
         transform="translate(414.79,335.5573)"
         id="g36"><path
           inkscape:connector-curvature="0"
           id="path38"
           style="fill:#201e4a;fill-opacity:1;fill-rule:nonzero;stroke:none"
           d="m 0,0 c -0.259,0.895 0.04,1.266 0.862,1.478 2.328,0.605 4.667,1.06 7.202,0.926 l 0,-1.168 c 0.014,-9.416 0.018,-18.831 0.04,-28.244 0,-1.455 0.089,-1.642 1.508,-1.936 1.003,-0.207 1.227,-0.708 0.977,-1.669 l -10.227,0 0,1.272 c 0.054,0.044 0.09,0.103 0.143,0.121 2.583,0.807 2.387,0.263 2.409,3.099 0.072,7.702 0.027,15.405 0.027,23.107 0,0.223 -0.004,0.445 -0.018,0.666 C 2.839,-0.905 2.669,-0.696 1.29,-0.341 0.866,-0.23 0.442,-0.116 0,0" /></g><g
         transform="translate(404.2826,326.5443)"
         id="g40"><path
           inkscape:connector-curvature="0"
           id="path42"
           style="fill:#201e4a;fill-opacity:1;fill-rule:nonzero;stroke:none"
           d="m 0,0 -1.276,0.221 c -1.838,0 -3.155,0.091 -4.667,-0.022 -2.758,-0.204 -5.225,-1.181 -7.202,-3.183 -3.53,-3.58 -4.306,-10.474 -1.7,-14.94 3.004,-5.158 9.834,-5.535 13.578,-0.888 0.049,0.059 0.308,2.265 0.308,2.265 -0.107,-0.111 -0.081,-0.66 -0.982,-1.239 -2.708,-1.738 -6.287,-1.139 -7.893,2.22 -1.516,3.176 -1.535,6.488 -0.384,9.785 0.741,2.113 2.276,3.432 4.56,3.502 0,0 3.044,0.257 3.855,-1.394 0.665,-1.34 0.536,-6.213 0.536,-6.213" /></g><g
         transform="translate(403.0066,326.7651)"
         id="g44"><path
           inkscape:connector-curvature="0"
           id="path46"
           style="fill:#201e4a;fill-opacity:1;fill-rule:nonzero;stroke:none"
           d="m 0,0 c 2.708,0 4.35,0 4.51,-2.375 0.201,-2.872 0.144,-8.995 0.211,-11.877 0.017,-0.883 0.058,-1.77 0.147,-2.649 0.161,-1.611 1.12,-2.549 2.628,-2.995 0.268,-0.082 0.536,-0.178 0.893,-0.301 -0.867,-1.648 -2.428,-2.011 -3.985,-2.123 -2.244,-0.161 -3.654,1.076 -4.395,3.287 l 0,15.92 L 0,0 Z" /></g><g
         transform="translate(367.3083,267.1923)"
         id="g48"><path
           inkscape:connector-curvature="0"
           id="path50"
           style="fill:#f7941b;fill-opacity:1;fill-rule:nonzero;stroke:none"
           d="m 0,0 c -0.769,0.072 -1.526,0.188 -2.283,0.201 -1.155,0.019 -1.978,-0.545 -2.362,-1.638 -0.597,-1.707 -0.587,-3.422 0.199,-5.069 0.831,-1.739 2.634,-1.963 4.088,-1.15 0.158,0.088 0.34,0.309 0.343,0.472 C 0.007,-4.836 0,-2.49 0,0 m -0.013,1.67 c 0,1.195 0.009,2.408 -0.005,3.619 -0.004,0.388 -0.231,0.632 -0.618,0.722 -0.301,0.071 -0.597,0.151 -0.886,0.223 -0.163,0.433 -0.01,0.641 0.409,0.754 1.22,0.331 2.448,0.565 3.777,0.495 l 0,-0.598 c 0,-4.51 0.003,-9.027 0.005,-13.54 0,-0.196 0,-0.394 0.008,-0.592 C 2.709,-8.058 2.816,-8.185 3.611,-8.38 3.722,-8.405 3.847,-8.415 3.936,-8.476 4.051,-8.548 4.215,-8.677 4.211,-8.773 4.199,-8.905 4.084,-9.115 3.967,-9.156 2.74,-9.585 1.477,-9.824 0.11,-9.759 l 0,1.594 c -0.105,-0.049 -0.157,-0.057 -0.181,-0.088 -1.941,-2.407 -5.415,-2.142 -6.972,0.524 -1.345,2.316 -0.946,5.888 0.882,7.737 1.023,1.041 2.302,1.546 3.73,1.652 0.783,0.058 1.572,0.01 2.418,0.01" /></g><g
         transform="translate(357.6617,292.7823)"
         id="g52"><path
           inkscape:connector-curvature="0"
           id="path54"
           style="fill:#f7941b;fill-opacity:1;fill-rule:nonzero;stroke:none"
           d="m 0,0 -41.976,36.815 c -3.877,3.394 -2.639,6.645 -2.639,6.645 0,0 -7.349,-7.472 -10.888,-11.012 -2.132,-2.131 -2.98,-4.635 -0.227,-7.057 l 42.699,-37.582 c 3.077,-3.079 1.998,-5.903 1.998,-5.903 0,0 10.417,10.369 11.437,11.387 C 2.401,-4.71 2.265,-1.973 0,0" /></g><g
         transform="translate(343.5244,305.1736)"
         id="g56"><path
           inkscape:connector-curvature="0"
           id="path58"
           style="fill:#f7941b;fill-opacity:1;fill-rule:nonzero;stroke:none"
           d="m 0,0 c 0,0 6.414,6.415 8.348,8.347 2.296,2.3 3.779,4.142 3.779,6.762 l 0,12.088 c 0,2.401 -1.256,3.723 -4.018,3.723 l -3.306,0 c -1.591,0 -3.117,-0.631 -4.241,-1.758 l -12.692,-12.709 7.329,0 c 0,0 3.067,0.285 3.067,-3.269 0,-4.215 -0.06,-11.653 -0.06,-11.653" /></g><g
         transform="translate(315.8712,306.0436)"
         id="g60"><path
           inkscape:connector-curvature="0"
           id="path62"
           style="fill:#f7941b;fill-opacity:1;fill-rule:nonzero;stroke:none"
           d="m 0,0 c 0,0 -6.414,-6.415 -8.348,-8.347 -2.296,-2.297 -3.779,-4.14 -3.779,-6.762 l 0,-12.087 c 0,-2.402 1.254,-3.724 4.02,-3.724 l 3.302,0 c 1.592,0 3.118,0.634 4.245,1.761 l 12.69,12.708 -7.326,0 c 0,0 -3.068,-0.286 -3.068,3.27 0,4.212 0.058,11.65 0.058,11.65" /></g></g></g></svg>